# Blender v2.79 (sub 0) OBJ File: ''
# www.blender.org
mtllib Halfpipe1.mtl
o Cube_Cube.001
v -4.254478 0.236028 2.370482
v -4.254478 4.756028 2.370482
v -4.254478 0.236028 -3.369518
v -4.254478 4.756028 -3.369518
v 4.705522 0.236028 2.370482
v 4.705522 4.756028 2.370482
v 4.705522 0.236028 -3.369518
v 4.705522 4.756028 -3.369518
v -2.277664 2.953410 -3.369518
v -2.277664 2.953410 2.370481
v -1.894413 2.486417 -3.369518
v -1.894413 2.486417 2.370481
v -2.562444 3.486199 -3.369518
v -2.562444 3.486199 2.370481
v -1.427420 2.103166 -3.369518
v -1.427420 2.103165 2.370481
v 0.284691 1.583802 -3.369518
v 0.284691 1.583802 2.370481
v 0.885904 1.643016 -3.369518
v 0.885904 1.643016 2.370481
v -0.316523 1.643016 -3.369518
v -0.316523 1.643016 2.370481
v 1.464013 1.818383 -3.369518
v 1.464013 1.818383 2.370481
v 3.131826 3.486197 -3.369518
v 3.131827 3.486197 2.370481
v 3.307194 4.064306 -3.369518
v 3.307194 4.064306 2.370481
v 2.847045 2.953409 -3.369518
v 2.847045 2.953408 2.370481
v 3.366408 4.665519 -3.369518
v 3.357493 4.756028 -3.369518
v 3.357493 4.756028 2.370482
v 3.366408 4.665519 2.370481
v -2.737811 4.064308 -3.369518
v -2.737811 4.064308 2.370481
v -0.894632 1.818384 -3.369518
v -0.894632 1.818384 2.370481
v -2.797025 4.665522 -3.369518
v -2.797025 4.665522 2.370481
v 2.463794 2.486416 -3.369518
v 2.463794 2.486416 2.370481
v 1.996801 2.103165 -3.369518
v 1.996801 2.103164 2.370481
v -2.788111 4.756028 -3.369518
v -2.788111 4.756028 2.370482
vn -1.0000 0.0000 0.0000
vn -0.0000 0.0000 -1.0000
vn 1.0000 0.0000 0.0000
vn 0.0000 0.0000 1.0000
vn 0.0000 -1.0000 0.0000
vn 0.0000 1.0000 0.0000
vn -0.9952 -0.0980 0.0000
vn 0.7730 0.6344 0.0000
vn 0.9952 -0.0980 0.0000
vn -0.9952 0.0980 0.0000
vn 0.2903 0.9569 0.0000
vn -0.8819 0.4714 0.0000
vn -0.9569 0.2903 0.0000
vn -0.0980 0.9952 0.0000
vn 0.9569 0.2903 0.0000
vn -0.2903 0.9569 0.0000
vn -0.7730 0.6344 0.0000
vn 0.6344 0.7730 -0.0000
vn 0.4714 0.8819 0.0000
vn 0.8819 0.4714 0.0000
vn 0.0980 0.9952 0.0000
vn -0.6344 0.7730 0.0000
vn -0.4714 0.8819 0.0000
vn 0.9952 0.0980 0.0000
usemtl None
s off
f 1//1 2//1 4//1 3//1
f 3//2 4//2 45//2 39//2 35//2 13//2 9//2 11//2 15//2 37//2 21//2 17//2 19//2 23//2 43//2 41//2 29//2 25//2 27//2 31//2 32//2 8//2 7//2
f 7//3 8//3 6//3 5//3
f 5//4 6//4 33//4 34//4 28//4 26//4 30//4 42//4 44//4 24//4 20//4 18//4 22//4 38//4 16//4 12//4 10//4 14//4 36//4 40//4 46//4 2//4 1//4
f 3//5 7//5 5//5 1//5
f 8//6 32//6 33//6 6//6
f 31//7 34//7 33//7 32//7
f 9//8 10//8 12//8 11//8
f 40//9 39//9 45//9 46//9
f 27//10 28//10 34//10 31//10
f 37//11 38//11 22//11 21//11
f 29//12 30//12 26//12 25//12
f 25//13 26//13 28//13 27//13
f 17//14 18//14 20//14 19//14
f 46//6 45//6 4//6 2//6
f 35//15 36//15 14//15 13//15
f 19//16 20//16 24//16 23//16
f 41//17 42//17 30//17 29//17
f 11//18 12//18 16//18 15//18
f 15//19 16//19 38//19 37//19
f 13//20 14//20 10//20 9//20
f 21//21 22//21 18//21 17//21
f 43//22 44//22 42//22 41//22
f 23//23 24//23 44//23 43//23
f 39//24 40//24 36//24 35//24
